#tb 0: 1/48000
#media_type 0: audio
#codec_id 0: pcm_s24le
#sample_rate 0: 48000
#channel_layout_name 0: 6.1
0,          0,          0,      512,    10752, 0xd4320448
0,        512,        512,      512,    10752, 0x00000000
0,       1024,       1024,      512,    10752, 0xb0d63493
0,       1536,       1536,      512,    10752, 0xb25bd689
0,       2048,       2048,      512,    10752, 0x946292ae
0,       2560,       2560,      512,    10752, 0x2cc3e026
